{
  "accessors": [
    {
      "bufferView": 2,
      "componentType": 5126,
      "count": 65532,
      "max": [
        1.7170510292053223,
        7.127991199493408,
        0.9556459784507751
      ],
      "min": [
        -0.7254239916801453,
        4.543848037719727,
        -0.7533829808235168
      ],
      "type": "VEC3"
    },
    {
      "bufferView": 2,
      "byteOffset": 786384,
      "componentType": 5126,
      "count": 65532,
      "max": [
        0.9999852180480957,
        0.999972403049469,
        0.9999955296516418
      ],
      "min": [
        -0.9999572038650513,
        -0.999988853931427,
        -0.9999978542327881
      ],
      "type": "VEC3"
    },
    {
      "bufferView": 3,
      "componentType": 5126,
      "count": 65532,
      "max": [
        0.8274509906768799,
        0.8509804010391235,
        0.8666666746139526,
        1.0
      ],
      "min": [
        0.0,
        0.0,
        0.0,
        1.0
      ],
      "type": "VEC4"
    },
    {
      "bufferView": 1,
      "componentType": 5126,
      "count": 65532,
      "max": [
        0.9891890287399292,
        0.9827229976654053
      ],
      "min": [
        0.003037000074982643,
        0.0008239999879151583
      ],
      "type": "VEC2"
    },
    {
      "bufferView": 0,
      "componentType": 5125,
      "count": 349884,
      "type": "SCALAR"
    },
    {
      "bufferView": 2,
      "byteOffset": 1572768,
      "componentType": 5126,
      "count": 65532,
      "max": [
        1.665531039237976,
        7.159669876098633,
        0.9221680164337158
      ],
      "min": [
        -1.7222880125045776,
        4.3862810134887695,
        -0.9139559864997864
      ],
      "type": "VEC3"
    },
    {
      "bufferView": 2,
      "byteOffset": 2359152,
      "componentType": 5126,
      "count": 65532,
      "max": [
        0.9999361634254456,
        0.9999650716781616,
        0.9999769926071167
      ],
      "min": [
        -0.9998834133148193,
        -0.9999999403953552,
        -0.9999865889549255
      ],
      "type": "VEC3"
    },
    {
      "bufferView": 3,
      "byteOffset": 1048512,
      "componentType": 5126,
      "count": 65532,
      "max": [
        0.8156862854957581,
        0.8235294222831726,
        0.8745098114013672,
        1.0
      ],
      "min": [
        0.0,
        0.0,
        0.0,
        1.0
      ],
      "type": "VEC4"
    },
    {
      "bufferView": 1,
      "byteOffset": 524256,
      "componentType": 5126,
      "count": 65532,
      "max": [
        0.9999589920043945,
        0.9979299902915955
      ],
      "min": [
        6.000000212225132e-06,
        0.00030300000798888505
      ],
      "type": "VEC2"
    },
    {
      "bufferView": 0,
      "byteOffset": 1399536,
      "componentType": 5125,
      "count": 338361,
      "type": "SCALAR"
    },
    {
      "bufferView": 2,
      "byteOffset": 3145536,
      "componentType": 5126,
      "count": 30102,
      "max": [
        1.7051349878311157,
        7.157909870147705,
        0.9524149894714355
      ],
      "min": [
        -1.558716058731079,
        4.5628838539123535,
        -0.8564559817314148
      ],
      "type": "VEC3"
    },
    {
      "bufferView": 2,
      "byteOffset": 3506760,
      "componentType": 5126,
      "count": 30102,
      "max": [
        0.9997538924217224,
        0.9999566078186035,
        0.9995080232620239
      ],
      "min": [
        -0.9999389052391052,
        -0.9999186992645264,
        -0.9999635219573975
      ],
      "type": "VEC3"
    },
    {
      "bufferView": 3,
      "byteOffset": 2097024,
      "componentType": 5126,
      "count": 30102,
      "max": [
        0.8274509906768799,
        0.8509804010391235,
        0.8627451062202454,
        1.0
      ],
      "min": [
        0.003921568859368563,
        0.003921568859368563,
        0.003921568859368563,
        1.0
      ],
      "type": "VEC4"
    },
    {
      "bufferView": 1,
      "byteOffset": 1048512,
      "componentType": 5126,
      "count": 30102,
      "max": [
        0.9999690055847168,
        0.9928960204124451
      ],
      "min": [
        3.000000106112566e-06,
        8.70000003487803e-05
      ],
      "type": "VEC2"
    },
    {
      "bufferView": 0,
      "byteOffset": 2752980,
      "componentType": 5125,
      "count": 111069,
      "type": "SCALAR"
    }
  ],
  "asset": {
    "extras": {
      "author": "Franko (https://sketchfab.com/franko89)",
      "license": "CC-BY-4.0 (http://creativecommons.org/licenses/by/4.0/)",
      "source": "https://sketchfab.com/3d-models/star-wars-millennium-falcon-a480073ca161430c911dc1a29427c22c",
      "title": "Star Wars Millennium Falcon"
    },
    "generator": "Sketchfab-11.30.0",
    "version": "2.0"
  },
  "bufferViews": [
    {
      "buffer": 0,
      "byteLength": 3197256,
      "name": "floatBufferViews",
      "target": 34963
    },
    {
      "buffer": 0,
      "byteLength": 1289328,
      "byteOffset": 3197256,
      "byteStride": 8,
      "name": "floatBufferViews",
      "target": 34962
    },
    {
      "buffer": 0,
      "byteLength": 3867984,
      "byteOffset": 4486584,
      "byteStride": 12,
      "name": "floatBufferViews",
      "target": 34962
    },
    {
      "buffer": 0,
      "byteLength": 2578656,
      "byteOffset": 8354568,
      "byteStride": 16,
      "name": "floatBufferViews",
      "target": 34962
    }
  ],
  "buffers": [
    {
      "byteLength": 10933224,
      "uri": "scene.bin"
    }
  ],
  "images": [
    {
      "uri": "textures/millennium_baseColor.jpeg"
    }
  ],
  "materials": [
    {
      "doubleSided": true,
      "emissiveFactor": [
        1.0,
        1.0,
        1.0
      ],
      "emissiveTexture": {
        "index": 0
      },
      "name": "millennium",
      "pbrMetallicRoughness": {
        "baseColorTexture": {
          "index": 0
        },
        "metallicFactor": 0.0
      }
    }
  ],
  "meshes": [
    {
      "name": "Object_0",
      "primitives": [
        {
          "attributes": {
            "COLOR_0": 2,
            "NORMAL": 1,
            "POSITION": 0,
            "TEXCOORD_0": 3
          },
          "indices": 4,
          "material": 0,
          "mode": 4
        }
      ]
    },
    {
      "name": "Object_1",
      "primitives": [
        {
          "attributes": {
            "COLOR_0": 7,
            "NORMAL": 6,
            "POSITION": 5,
            "TEXCOORD_0": 8
          },
          "indices": 9,
          "material": 0,
          "mode": 4
        }
      ]
    },
    {
      "name": "Object_2",
      "primitives": [
        {
          "attributes": {
            "COLOR_0": 12,
            "NORMAL": 11,
            "POSITION": 10,
            "TEXCOORD_0": 13
          },
          "indices": 14,
          "material": 0,
          "mode": 4
        }
      ]
    }
  ],
  "nodes": [
    {
      "children": [
        1
      ],
      "matrix": [
        1.0,
        0.0,
        0.0,
        0.0,
        0.0,
        2.220446049250313e-16,
        -1.0,
        0.0,
        0.0,
        1.0,
        2.220446049250313e-16,
        0.0,
        0.0,
        0.0,
        0.0,
        1.0
      ],
      "name": "Sketchfab_model"
    },
    {
      "children": [
        2,
        3,
        4
      ],
      "name": "millennium.obj.cleaner.materialmerger.gles"
    },
    {
      "mesh": 0,
      "name": "Object_2"
    },
    {
      "mesh": 1,
      "name": "Object_3"
    },
    {
      "mesh": 2,
      "name": "Object_4"
    }
  ],
  "samplers": [
    {
      "magFilter": 9729,
      "minFilter": 9987,
      "wrapS": 10497,
      "wrapT": 10497
    }
  ],
  "scene": 0,
  "scenes": [
    {
      "name": "Sketchfab_Scene",
      "nodes": [
        0
      ]
    }
  ],
  "textures": [
    {
      "sampler": 0,
      "source": 0
    }
  ]
}
